<?xml version="1.0" encoding="UTF-8" standalone="no"?>
<!-- Created with Inkscape (http://www.inkscape.org/) -->

<svg
   xmlns:dc="http://purl.org/dc/elements/1.1/"
   xmlns:cc="http://creativecommons.org/ns#"
   xmlns:rdf="http://www.w3.org/1999/02/22-rdf-syntax-ns#"
   xmlns:svg="http://www.w3.org/2000/svg"
   xmlns="http://www.w3.org/2000/svg"
   xmlns:sodipodi="http://sodipodi.sourceforge.net/DTD/sodipodi-0.dtd"
   xmlns:inkscape="http://www.inkscape.org/namespaces/inkscape"
   width="170.19168"
   height="170.28688"
   viewBox="0 0 170.19167 170.28688"
   id="svg2"
   version="1.1"
   inkscape:version="0.91 r13725"
   sodipodi:docname="new_plugin_icon.svg"
   inkscape:export-filename="C:\Program\Propeller\Gear\gear-emu-branch-old\TestThings\plugin_icon.png"
   inkscape:export-xdpi="5.6199999"
   inkscape:export-ydpi="5.6199999">
  <title
     id="title4165">New Plugin icon</title>
  <defs
     id="defs4" />
  <sodipodi:namedview
     id="base"
     pagecolor="#ffffff"
     bordercolor="#666666"
     borderopacity="1.0"
     inkscape:pageopacity="0.0"
     inkscape:pageshadow="2"
     inkscape:zoom="3.3883995"
     inkscape:cx="85.09584"
     inkscape:cy="85.143444"
     inkscape:document-units="px"
     inkscape:current-layer="layer2"
     showgrid="true"
     showguides="true"
     inkscape:window-width="1261"
     inkscape:window-height="746"
     inkscape:window-x="97"
     inkscape:window-y="-8"
     inkscape:window-maximized="1"
     fit-margin-top="0"
     fit-margin-left="0"
     fit-margin-right="0"
     fit-margin-bottom="0"
     units="px"
     inkscape:snap-smooth-nodes="true">
    <inkscape:grid
       type="xygrid"
       id="grid3351"
       originx="-42.343469"
       originy="-785.20062" />
  </sodipodi:namedview>
  <metadata
     id="metadata7">
    <rdf:RDF>
      <cc:Work
         rdf:about="">
        <dc:format>image/svg+xml</dc:format>
        <dc:type
           rdf:resource="http://purl.org/dc/dcmitype/StillImage" />
        <dc:title>New Plugin icon</dc:title>
        <cc:license
           rdf:resource="http://creativecommons.org/publicdomain/zero/1.0/" />
        <dc:creator>
          <cc:Agent>
            <dc:title>Antonio Sanhueza</dc:title>
          </cc:Agent>
        </dc:creator>
        <dc:rights>
          <cc:Agent>
            <dc:title>CC</dc:title>
          </cc:Agent>
        </dc:rights>
        <dc:date>10.07.2015</dc:date>
      </cc:Work>
      <cc:License
         rdf:about="http://creativecommons.org/publicdomain/zero/1.0/">
        <cc:permits
           rdf:resource="http://creativecommons.org/ns#Reproduction" />
        <cc:permits
           rdf:resource="http://creativecommons.org/ns#Distribution" />
        <cc:permits
           rdf:resource="http://creativecommons.org/ns#DerivativeWorks" />
      </cc:License>
    </rdf:RDF>
  </metadata>
  <g
     inkscape:groupmode="layer"
     id="layer2"
     inkscape:label="Capa 2"
     transform="translate(-42.343472,-96.874696)">
    <path
       style="display:inline;fill:#ffff00;fill-opacity:1;stroke:#000000;stroke-width:13.62289715;stroke-miterlimit:4;stroke-dasharray:none;stroke-opacity:1"
       d="m 59.423581,250.08147 -7.447472,-7.44745 15.163874,-15.16517 15.163874,-15.16514 -1.432029,-2.41958 c -3.363322,-5.68271 -5.684084,-12.43947 -6.758412,-19.67668 -0.397345,-2.67671 -0.397347,-10.63875 -3e-6,-13.51052 0.795871,-5.75213 2.45171,-11.17344 4.985472,-16.3227 3.519175,-7.15189 5.378269,-9.40406 18.934079,-22.93731 l 10.755666,-10.73778 5.54226,5.53867 5.5423,5.53867 16.68704,-16.65434 c 18.47269,-18.43643 17.26503,-17.40517 20.38225,-17.40517 2.79861,0 5.06006,1.38719 6.26012,3.83998 0.50131,1.02469 0.62924,1.6161 0.63517,2.93639 0.0137,3.05815 0.80246,2.13712 -17.58437,20.53356 l -16.56217,16.57081 16.11463,16.10852 16.11463,16.1085 16.46857,-16.50654 c 18.35103,-18.39333 17.48911,-17.65433 20.58626,-17.64983 2.67122,0.004 4.93445,1.37429 6.12775,3.71039 0.75274,1.47363 0.8212,4.74472 0.1297,6.1963 -0.29409,0.61735 -5.92438,6.42125 -16.97202,17.49537 l -16.53195,16.57159 5.53863,5.54224 5.53866,5.54224 -10.50683,10.52596 c -5.77876,5.78925 -11.49415,11.3598 -12.70086,12.37899 -6.06369,5.12138 -14.25476,9.17091 -22.05568,10.90394 -4.19914,0.93287 -6.63373,1.17567 -11.66295,1.16312 -6.67001,-0.0165 -11.25464,-0.79794 -17.55217,-2.99125 -2.61468,-0.91063 -7.39223,-3.20186 -9.536389,-4.57345 -0.729963,-0.46695 -1.402841,-0.84899 -1.495284,-0.84899 -20.782151,20.54128 -10.89481,10.72579 -30.424873,30.25414 z"
       id="path3338"
       inkscape:connector-curvature="0"
       inkscape:export-xdpi="8.46"
       inkscape:export-ydpi="8.46" />
  </g>
</svg>
